<svg width="375" height="812" viewBox="0 0 375 812" fill="none" xmlns="http://www.w3.org/2000/svg">
<rect width="375" height="812" fill="#3767AD"/>
<g filter="url(#filter0_d)">
<rect x="79" y="541" width="216" height="47" rx="4" fill="white"/>
</g>
<path d="M128.033 566.175C128.033 564.71 128.373 563.535 129.053 562.65C129.732 561.76 130.644 561.314 131.786 561.314C132.794 561.314 133.608 561.666 134.229 562.369V557.5H136.365V571H134.432L134.326 570.016C133.688 570.789 132.835 571.176 131.769 571.176C130.655 571.176 129.753 570.728 129.062 569.831C128.376 568.935 128.033 567.716 128.033 566.175ZM130.169 566.359C130.169 567.326 130.354 568.082 130.723 568.627C131.098 569.166 131.628 569.436 132.313 569.436C133.187 569.436 133.825 569.046 134.229 568.267V564.206C133.837 563.444 133.204 563.063 132.331 563.063C131.64 563.063 131.106 563.339 130.731 563.89C130.356 564.435 130.169 565.258 130.169 566.359ZM138.193 566.157C138.193 565.226 138.378 564.388 138.747 563.644C139.116 562.894 139.635 562.319 140.303 561.921C140.971 561.517 141.738 561.314 142.605 561.314C143.889 561.314 144.929 561.728 145.726 562.554C146.528 563.38 146.962 564.476 147.026 565.841L147.035 566.342C147.035 567.279 146.854 568.117 146.49 568.855C146.133 569.594 145.617 570.165 144.943 570.569C144.275 570.974 143.502 571.176 142.623 571.176C141.281 571.176 140.206 570.73 139.397 569.84C138.595 568.943 138.193 567.751 138.193 566.263V566.157ZM140.329 566.342C140.329 567.32 140.531 568.088 140.936 568.645C141.34 569.195 141.902 569.471 142.623 569.471C143.344 569.471 143.903 569.189 144.302 568.627C144.706 568.064 144.908 567.241 144.908 566.157C144.908 565.196 144.7 564.435 144.284 563.872C143.874 563.31 143.314 563.028 142.605 563.028C141.908 563.028 141.354 563.307 140.944 563.863C140.534 564.414 140.329 565.24 140.329 566.342ZM148.441 566.175C148.441 564.71 148.781 563.535 149.461 562.65C150.141 561.76 151.052 561.314 152.194 561.314C153.202 561.314 154.017 561.666 154.638 562.369V557.5H156.773V571H154.84L154.734 570.016C154.096 570.789 153.243 571.176 152.177 571.176C151.063 571.176 150.161 570.728 149.47 569.831C148.784 568.935 148.441 567.716 148.441 566.175ZM150.577 566.359C150.577 567.326 150.762 568.082 151.131 568.627C151.506 569.166 152.036 569.436 152.722 569.436C153.595 569.436 154.233 569.046 154.638 568.267V564.206C154.245 563.444 153.612 563.063 152.739 563.063C152.048 563.063 151.515 563.339 151.14 563.89C150.765 564.435 150.577 565.258 150.577 566.359ZM164.684 571C164.59 570.818 164.508 570.522 164.438 570.112C163.758 570.821 162.926 571.176 161.941 571.176C160.986 571.176 160.207 570.903 159.604 570.358C159 569.813 158.698 569.14 158.698 568.337C158.698 567.323 159.073 566.547 159.823 566.008C160.579 565.463 161.657 565.19 163.058 565.19H164.367V564.566C164.367 564.074 164.229 563.682 163.954 563.389C163.679 563.09 163.26 562.94 162.697 562.94C162.211 562.94 161.812 563.063 161.502 563.31C161.191 563.55 161.036 563.857 161.036 564.232H158.9C158.9 563.711 159.073 563.225 159.419 562.773C159.765 562.316 160.233 561.959 160.825 561.701C161.423 561.443 162.088 561.314 162.82 561.314C163.934 561.314 164.821 561.596 165.483 562.158C166.146 562.715 166.485 563.5 166.503 564.514V568.803C166.503 569.658 166.623 570.341 166.863 570.851V571H164.684ZM162.337 569.462C162.759 569.462 163.154 569.359 163.523 569.154C163.898 568.949 164.18 568.674 164.367 568.328V566.535H163.216C162.425 566.535 161.83 566.673 161.432 566.948C161.033 567.224 160.834 567.613 160.834 568.117C160.834 568.527 160.969 568.855 161.238 569.102C161.514 569.342 161.88 569.462 162.337 569.462ZM170.968 561.49V571.844C170.968 572.816 170.725 573.558 170.238 574.067C169.758 574.583 169.052 574.841 168.12 574.841C167.728 574.841 167.35 574.791 166.986 574.691V573.004C167.209 573.057 167.461 573.083 167.742 573.083C168.451 573.083 168.814 572.696 168.832 571.923V561.49H170.968ZM168.647 559.021C168.647 558.692 168.75 558.42 168.955 558.203C169.166 557.986 169.465 557.878 169.852 557.878C170.238 557.878 170.537 557.986 170.748 558.203C170.959 558.42 171.064 558.692 171.064 559.021C171.064 559.343 170.959 559.612 170.748 559.829C170.537 560.04 170.238 560.146 169.852 560.146C169.465 560.146 169.166 560.04 168.955 559.829C168.75 559.612 168.647 559.343 168.647 559.021ZM183.07 568.416C183.07 568.035 182.912 567.745 182.596 567.546C182.285 567.347 181.767 567.171 181.04 567.019C180.313 566.866 179.707 566.673 179.221 566.438C178.154 565.923 177.621 565.176 177.621 564.197C177.621 563.377 177.967 562.691 178.658 562.141C179.35 561.59 180.229 561.314 181.295 561.314C182.432 561.314 183.349 561.596 184.046 562.158C184.749 562.721 185.101 563.45 185.101 564.347H182.965C182.965 563.937 182.812 563.597 182.508 563.327C182.203 563.052 181.799 562.914 181.295 562.914C180.826 562.914 180.442 563.022 180.144 563.239C179.851 563.456 179.704 563.746 179.704 564.109C179.704 564.438 179.842 564.692 180.117 564.874C180.393 565.056 180.949 565.24 181.787 565.428C182.625 565.609 183.281 565.829 183.756 566.087C184.236 566.339 184.591 566.644 184.819 567.001C185.054 567.358 185.171 567.792 185.171 568.302C185.171 569.157 184.816 569.852 184.107 570.385C183.398 570.912 182.47 571.176 181.321 571.176C180.542 571.176 179.848 571.035 179.238 570.754C178.629 570.473 178.154 570.086 177.814 569.594C177.475 569.102 177.305 568.571 177.305 568.003H179.379C179.408 568.507 179.599 568.896 179.95 569.172C180.302 569.441 180.768 569.576 181.348 569.576C181.91 569.576 182.338 569.471 182.631 569.26C182.924 569.043 183.07 568.762 183.07 568.416ZM189.319 569.295H194.382V571H186.665V569.603L191.49 563.213H186.753V561.49H194.197V562.844L189.319 569.295ZM199.181 566.922L198.231 567.897V571H196.096V557.5H198.231V565.287L198.899 564.452L201.527 561.49H204.094L200.561 565.454L204.472 571H202.002L199.181 566.922ZM207.768 571H205.632V557.5H207.768V571ZM215.783 571C215.689 570.818 215.607 570.522 215.537 570.112C214.857 570.821 214.025 571.176 213.041 571.176C212.086 571.176 211.307 570.903 210.703 570.358C210.1 569.813 209.798 569.14 209.798 568.337C209.798 567.323 210.173 566.547 210.923 566.008C211.679 565.463 212.757 565.19 214.157 565.19H215.467V564.566C215.467 564.074 215.329 563.682 215.054 563.389C214.778 563.09 214.359 562.94 213.797 562.94C213.311 562.94 212.912 563.063 212.602 563.31C212.291 563.55 212.136 563.857 212.136 564.232H210C210 563.711 210.173 563.225 210.519 562.773C210.864 562.316 211.333 561.959 211.925 561.701C212.522 561.443 213.188 561.314 213.92 561.314C215.033 561.314 215.921 561.596 216.583 562.158C217.245 562.715 217.585 563.5 217.603 564.514V568.803C217.603 569.658 217.723 570.341 217.963 570.851V571H215.783ZM213.437 569.462C213.858 569.462 214.254 569.359 214.623 569.154C214.998 568.949 215.279 568.674 215.467 568.328V566.535H214.315C213.524 566.535 212.93 566.673 212.531 566.948C212.133 567.224 211.934 567.613 211.934 568.117C211.934 568.527 212.068 568.855 212.338 569.102C212.613 569.342 212.979 569.462 213.437 569.462ZM221.821 561.49L221.883 562.589C222.586 561.739 223.509 561.314 224.651 561.314C226.632 561.314 227.64 562.448 227.675 564.716V571H225.539V564.839C225.539 564.235 225.407 563.79 225.144 563.503C224.886 563.21 224.461 563.063 223.869 563.063C223.008 563.063 222.366 563.453 221.944 564.232V571H219.809V561.49H221.821ZM232.948 566.922L231.999 567.897V571H229.863V557.5H231.999V565.287L232.667 564.452L235.295 561.49H237.861L234.328 565.454L238.239 571H235.77L232.948 566.922ZM246.94 569.383C246.513 570.004 245.968 570.464 245.306 570.763C244.796 571.091 244.433 571.393 244.216 571.668C243.999 571.943 243.891 572.225 243.891 572.512C243.891 572.91 244.099 573.109 244.515 573.109C244.772 573.109 245.036 573.042 245.306 572.907L245.49 574.155C245.062 574.413 244.579 574.542 244.04 574.542C243.483 574.542 243.035 574.381 242.695 574.059C242.355 573.736 242.186 573.309 242.186 572.775C242.186 572.178 242.42 571.639 242.889 571.158C241.676 571.082 240.686 570.643 239.918 569.84C239.156 569.031 238.758 567.997 238.723 566.737V566.228C238.723 565.278 238.904 564.432 239.268 563.688C239.637 562.938 240.152 562.354 240.814 561.938C241.477 561.522 242.215 561.314 243.029 561.314C244.324 561.314 245.323 561.728 246.026 562.554C246.735 563.38 247.09 564.549 247.09 566.061V566.922H240.876C240.94 567.707 241.201 568.328 241.658 568.785C242.121 569.242 242.701 569.471 243.398 569.471C244.377 569.471 245.174 569.075 245.789 568.284L246.94 569.383ZM243.021 563.028C242.435 563.028 241.96 563.233 241.597 563.644C241.239 564.054 241.011 564.625 240.911 565.357H244.98V565.199C244.934 564.484 244.743 563.945 244.409 563.582C244.075 563.213 243.612 563.028 243.021 563.028Z" fill="black"/>
<path d="M147.68 636.275C147.192 636.85 146.499 637.137 145.602 637.137C144.799 637.137 144.191 636.902 143.776 636.433C143.366 635.963 143.161 635.284 143.161 634.396V629.604H144.822V634.375C144.822 635.314 145.212 635.783 145.991 635.783C146.798 635.783 147.342 635.494 147.625 634.915V629.604H149.286V637H147.721L147.68 636.275ZM155.124 634.99C155.124 634.694 155.001 634.468 154.755 634.313C154.513 634.159 154.11 634.022 153.545 633.903C152.98 633.785 152.508 633.634 152.13 633.452C151.3 633.051 150.886 632.47 150.886 631.709C150.886 631.071 151.155 630.538 151.692 630.109C152.23 629.681 152.914 629.467 153.743 629.467C154.627 629.467 155.34 629.686 155.883 630.123C156.43 630.561 156.703 631.128 156.703 631.825H155.042C155.042 631.506 154.924 631.242 154.687 631.032C154.45 630.818 154.135 630.711 153.743 630.711C153.379 630.711 153.08 630.795 152.848 630.964C152.62 631.132 152.506 631.358 152.506 631.641C152.506 631.896 152.613 632.094 152.827 632.235C153.041 632.377 153.474 632.52 154.126 632.666C154.778 632.807 155.288 632.978 155.657 633.179C156.031 633.375 156.307 633.612 156.484 633.89C156.667 634.168 156.758 634.505 156.758 634.901C156.758 635.567 156.482 636.107 155.931 636.521C155.379 636.932 154.657 637.137 153.764 637.137C153.158 637.137 152.618 637.027 152.144 636.809C151.67 636.59 151.3 636.289 151.036 635.906C150.772 635.523 150.64 635.111 150.64 634.669H152.253C152.276 635.061 152.424 635.364 152.697 635.578C152.971 635.788 153.333 635.893 153.784 635.893C154.222 635.893 154.554 635.811 154.782 635.646C155.01 635.478 155.124 635.259 155.124 634.99ZM162.691 636.275C162.204 636.85 161.511 637.137 160.613 637.137C159.811 637.137 159.203 636.902 158.788 636.433C158.378 635.963 158.173 635.284 158.173 634.396V629.604H159.834V634.375C159.834 635.314 160.224 635.783 161.003 635.783C161.81 635.783 162.354 635.494 162.637 634.915V629.604H164.298V637H162.732L162.691 636.275ZM167.531 629.604L167.579 630.458C168.126 629.797 168.844 629.467 169.732 629.467C171.273 629.467 172.057 630.349 172.084 632.112V637H170.423V632.208C170.423 631.739 170.32 631.392 170.115 631.169C169.915 630.941 169.584 630.827 169.124 630.827C168.454 630.827 167.955 631.13 167.627 631.736V637H165.966V629.604H167.531ZM169.548 626.5H171.441L169.548 628.571H168.215L169.548 626.5ZM181.415 634.99C181.415 634.694 181.292 634.468 181.046 634.313C180.804 634.159 180.401 634.022 179.836 633.903C179.271 633.785 178.799 633.634 178.421 633.452C177.591 633.051 177.177 632.47 177.177 631.709C177.177 631.071 177.446 630.538 177.983 630.109C178.521 629.681 179.205 629.467 180.034 629.467C180.918 629.467 181.632 629.686 182.174 630.123C182.721 630.561 182.994 631.128 182.994 631.825H181.333C181.333 631.506 181.215 631.242 180.978 631.032C180.741 630.818 180.426 630.711 180.034 630.711C179.67 630.711 179.371 630.795 179.139 630.964C178.911 631.132 178.797 631.358 178.797 631.641C178.797 631.896 178.904 632.094 179.118 632.235C179.332 632.377 179.765 632.52 180.417 632.666C181.069 632.807 181.579 632.978 181.948 633.179C182.322 633.375 182.598 633.612 182.775 633.89C182.958 634.168 183.049 634.505 183.049 634.901C183.049 635.567 182.773 636.107 182.222 636.521C181.67 636.932 180.948 637.137 180.055 637.137C179.449 637.137 178.909 637.027 178.435 636.809C177.961 636.59 177.591 636.289 177.327 635.906C177.063 635.523 176.931 635.111 176.931 634.669H178.544C178.567 635.061 178.715 635.364 178.988 635.578C179.262 635.788 179.624 635.893 180.075 635.893C180.513 635.893 180.845 635.811 181.073 635.646C181.301 635.478 181.415 635.259 181.415 634.99ZM186.275 635.674H190.213V637H184.211V635.913L187.964 630.943H184.279V629.604H190.069V630.656L186.275 635.674ZM193.945 633.828L193.207 634.587V637H191.546V626.5H193.207V632.557L193.727 631.907L195.771 629.604H197.767L195.019 632.687L198.061 637H196.14L193.945 633.828ZM200.624 637H198.963V626.5H200.624V637ZM206.858 637C206.785 636.859 206.722 636.629 206.667 636.31C206.138 636.861 205.491 637.137 204.726 637.137C203.983 637.137 203.377 636.925 202.907 636.501C202.438 636.077 202.203 635.553 202.203 634.929C202.203 634.14 202.495 633.536 203.078 633.117C203.666 632.693 204.505 632.481 205.594 632.481H206.612V631.996C206.612 631.613 206.505 631.308 206.291 631.08C206.077 630.848 205.751 630.731 205.313 630.731C204.935 630.731 204.625 630.827 204.384 631.019C204.142 631.205 204.021 631.445 204.021 631.736H202.36C202.36 631.331 202.495 630.952 202.764 630.602C203.033 630.246 203.397 629.968 203.857 629.768C204.322 629.567 204.84 629.467 205.409 629.467C206.275 629.467 206.965 629.686 207.48 630.123C207.995 630.556 208.26 631.167 208.273 631.955V635.291C208.273 635.956 208.367 636.487 208.554 636.884V637H206.858ZM205.033 635.804C205.361 635.804 205.669 635.724 205.956 635.564C206.248 635.405 206.466 635.191 206.612 634.922V633.527H205.717C205.102 633.527 204.639 633.634 204.329 633.849C204.019 634.063 203.864 634.366 203.864 634.758C203.864 635.077 203.969 635.332 204.179 635.523C204.393 635.71 204.678 635.804 205.033 635.804ZM211.555 629.604L211.603 630.458C212.149 629.797 212.867 629.467 213.756 629.467C215.296 629.467 216.08 630.349 216.107 632.112V637H214.446V632.208C214.446 631.739 214.344 631.392 214.139 631.169C213.938 630.941 213.608 630.827 213.147 630.827C212.478 630.827 211.979 631.13 211.65 631.736V637H209.989V629.604H211.555ZM220.209 633.828L219.471 634.587V637H217.81V626.5H219.471V632.557L219.99 631.907L222.034 629.604H224.03L221.282 632.687L224.324 637H222.403L220.209 633.828ZM231.092 635.742C230.759 636.225 230.335 636.583 229.82 636.815C229.424 637.071 229.141 637.305 228.973 637.52C228.804 637.734 228.72 637.952 228.72 638.176C228.72 638.486 228.882 638.641 229.205 638.641C229.406 638.641 229.611 638.588 229.82 638.483L229.964 639.454C229.631 639.655 229.255 639.755 228.836 639.755C228.403 639.755 228.054 639.63 227.79 639.379C227.526 639.128 227.394 638.796 227.394 638.381C227.394 637.916 227.576 637.497 227.94 637.123C226.997 637.064 226.227 636.722 225.63 636.098C225.037 635.469 224.728 634.664 224.7 633.685V633.288C224.7 632.55 224.841 631.891 225.124 631.312C225.411 630.729 225.812 630.276 226.327 629.952C226.842 629.629 227.416 629.467 228.05 629.467C229.057 629.467 229.834 629.788 230.381 630.431C230.932 631.073 231.208 631.982 231.208 633.158V633.828H226.375C226.425 634.439 226.628 634.922 226.983 635.277C227.343 635.633 227.795 635.811 228.337 635.811C229.098 635.811 229.718 635.503 230.196 634.888L231.092 635.742ZM228.043 630.8C227.587 630.8 227.218 630.959 226.936 631.278C226.658 631.597 226.48 632.042 226.402 632.611H229.567V632.488C229.531 631.932 229.383 631.513 229.123 631.23C228.863 630.943 228.503 630.8 228.043 630.8Z" fill="#F5E5E7"/>
<path d="M289.748 215.888C288.085 214.05 285.74 213 283.255 213H90.7555C88.288 213 85.9255 214.05 84.263 215.888C82.618 217.708 81.7955 220.158 82.0405 222.625L108.29 485.125C108.745 489.605 112.508 493 117.005 493H257.005C261.503 493 265.265 489.605 265.703 485.125L291.953 222.625C292.215 220.158 291.41 217.708 289.748 215.888Z" fill="#ECEFF1"/>
<path d="M266.455 302.25L249.13 475.5H124.88L105.455 281.775C127.33 274.775 160.58 270.05 187.005 291.75C212.555 312.75 244.755 308.9 266.455 302.25Z" fill="#2196F3"/>
<path d="M211.281 355.375C211.281 359.276 210.279 362.758 208.273 365.82C206.268 368.846 203.534 371.234 200.07 372.984C204.227 374.917 207.417 377.56 209.641 380.914C211.901 384.268 213.031 388.06 213.031 392.289C213.031 399.289 210.661 404.849 205.922 408.969C201.182 413.052 194.875 415.094 187 415.094C179.089 415.094 172.745 413.034 167.969 408.914C163.229 404.794 160.859 399.253 160.859 392.289C160.859 388.023 161.99 384.195 164.25 380.805C166.51 377.414 169.682 374.807 173.766 372.984C170.339 371.234 167.622 368.846 165.617 365.82C163.648 362.758 162.664 359.276 162.664 355.375C162.664 348.594 164.852 343.216 169.227 339.242C173.602 335.268 179.508 333.281 186.945 333.281C194.419 333.281 200.344 335.268 204.719 339.242C209.094 343.216 211.281 348.594 211.281 355.375ZM199.742 391.633C199.742 387.695 198.557 384.523 196.188 382.117C193.854 379.674 190.755 378.453 186.891 378.453C183.026 378.453 179.927 379.656 177.594 382.062C175.297 384.469 174.148 387.659 174.148 391.633C174.148 395.534 175.279 398.651 177.539 400.984C179.836 403.318 182.99 404.484 187 404.484C191.01 404.484 194.128 403.354 196.352 401.094C198.612 398.833 199.742 395.68 199.742 391.633ZM198.047 355.867C198.047 352.404 197.044 349.56 195.039 347.336C193.034 345.076 190.336 343.945 186.945 343.945C183.555 343.945 180.875 345.021 178.906 347.172C176.938 349.286 175.953 352.185 175.953 355.867C175.953 359.513 176.938 362.411 178.906 364.562C180.911 366.714 183.609 367.789 187 367.789C190.391 367.789 193.07 366.714 195.039 364.562C197.044 362.411 198.047 359.513 198.047 355.867Z" fill="black"/>
<path d="M92.8252 113.779L97.7324 103.672H101.834L94.6855 117.148V125H90.9648V117.148L83.8018 103.672H87.918L92.8252 113.779ZM120.73 114.893C120.73 116.982 120.369 118.818 119.646 120.4C118.924 121.973 117.889 123.184 116.541 124.033C115.203 124.873 113.66 125.293 111.912 125.293C110.184 125.293 108.641 124.873 107.283 124.033C105.936 123.184 104.891 121.978 104.148 120.415C103.416 118.853 103.045 117.051 103.035 115.01V113.809C103.035 111.729 103.401 109.893 104.134 108.301C104.876 106.709 105.916 105.493 107.254 104.653C108.602 103.804 110.145 103.379 111.883 103.379C113.621 103.379 115.159 103.799 116.497 104.639C117.845 105.469 118.885 106.67 119.617 108.242C120.35 109.805 120.721 111.626 120.73 113.706V114.893ZM117.024 113.779C117.024 111.416 116.575 109.604 115.677 108.345C114.788 107.085 113.523 106.455 111.883 106.455C110.281 106.455 109.026 107.085 108.118 108.345C107.22 109.595 106.761 111.367 106.741 113.662V114.893C106.741 117.236 107.195 119.048 108.104 120.327C109.021 121.606 110.291 122.246 111.912 122.246C113.553 122.246 114.812 121.621 115.691 120.371C116.58 119.121 117.024 117.295 117.024 114.893V113.779ZM140.022 103.672V117.925C140.022 120.19 139.295 121.987 137.84 123.315C136.395 124.634 134.466 125.293 132.054 125.293C129.612 125.293 127.674 124.644 126.238 123.345C124.803 122.036 124.085 120.225 124.085 117.91V103.672H127.776V117.939C127.776 119.365 128.138 120.454 128.86 121.206C129.583 121.958 130.647 122.334 132.054 122.334C134.905 122.334 136.331 120.83 136.331 117.822V103.672H140.022ZM144.388 110L142.571 108.872C143.45 107.593 143.904 106.24 143.934 104.814V102.5H147.054V104.521C147.054 105.527 146.795 106.543 146.277 107.568C145.77 108.584 145.14 109.395 144.388 110ZM158.011 120.356L163.431 103.672H167.503L159.827 125H156.238L148.592 103.672H152.649L158.011 120.356ZM182.386 115.479H173.626V122.041H183.865V125H169.92V103.672H183.763V106.66H173.626V112.549H182.386V115.479ZM194.354 125V103.672H200.652C202.537 103.672 204.207 104.092 205.662 104.932C207.127 105.771 208.26 106.963 209.061 108.506C209.861 110.049 210.262 111.816 210.262 113.809V114.878C210.262 116.899 209.856 118.677 209.046 120.21C208.245 121.743 207.098 122.925 205.604 123.755C204.119 124.585 202.415 125 200.491 125H194.354ZM198.06 106.66V122.041H200.477C202.42 122.041 203.909 121.436 204.944 120.225C205.989 119.004 206.521 117.256 206.541 114.98V113.794C206.541 111.479 206.038 109.712 205.032 108.491C204.026 107.271 202.566 106.66 200.652 106.66H198.06ZM221.79 116.782H217.659V125H213.953V103.672H221.453C223.914 103.672 225.813 104.224 227.151 105.327C228.489 106.431 229.158 108.027 229.158 110.117C229.158 111.543 228.812 112.739 228.118 113.706C227.435 114.663 226.478 115.4 225.247 115.918L230.037 124.81V125H226.067L221.79 116.782ZM217.659 113.809H221.468C222.718 113.809 223.694 113.496 224.397 112.871C225.101 112.236 225.452 111.372 225.452 110.278C225.452 109.136 225.125 108.252 224.471 107.627C223.826 107.002 222.859 106.68 221.57 106.66H217.659V113.809ZM248.274 103.672V117.925C248.274 120.19 247.547 121.987 246.092 123.315C244.646 124.634 242.718 125.293 240.306 125.293C237.864 125.293 235.926 124.644 234.49 123.345C233.055 122.036 232.337 120.225 232.337 117.91V103.672H236.028V117.939C236.028 119.365 236.39 120.454 237.112 121.206C237.835 121.958 238.899 122.334 240.306 122.334C243.157 122.334 244.583 120.83 244.583 117.822V103.672H248.274ZM269.163 125H265.457L255.95 109.868V125H252.244V103.672H255.95L265.486 118.862V103.672H269.163V125ZM279.666 115.786L277.249 118.35V125H273.543V103.672H277.249V113.677L279.3 111.143L285.54 103.672H290.022L282.098 113.12L290.477 125H286.082L279.666 115.786ZM153.66 141.66H147.01V160H143.333V141.66H136.741V138.672H153.66V141.66ZM173.084 149.893C173.084 151.982 172.723 153.818 172 155.4C171.277 156.973 170.242 158.184 168.895 159.033C167.557 159.873 166.014 160.293 164.266 160.293C162.537 160.293 160.994 159.873 159.637 159.033C158.289 158.184 157.244 156.978 156.502 155.415C155.77 153.853 155.398 152.051 155.389 150.01V148.809C155.389 146.729 155.755 144.893 156.487 143.301C157.229 141.709 158.27 140.493 159.607 139.653C160.955 138.804 162.498 138.379 164.236 138.379C165.975 138.379 167.513 138.799 168.851 139.639C170.198 140.469 171.238 141.67 171.971 143.242C172.703 144.805 173.074 146.626 173.084 148.706V149.893ZM169.378 148.779C169.378 146.416 168.929 144.604 168.03 143.345C167.142 142.085 165.877 141.455 164.236 141.455C162.635 141.455 161.38 142.085 160.472 143.345C159.573 144.595 159.114 146.367 159.095 148.662V149.893C159.095 152.236 159.549 154.048 160.457 155.327C161.375 156.606 162.645 157.246 164.266 157.246C165.906 157.246 167.166 156.621 168.045 155.371C168.934 154.121 169.378 152.295 169.378 149.893V148.779ZM176.775 160V138.672H183.074C184.959 138.672 186.629 139.092 188.084 139.932C189.549 140.771 190.682 141.963 191.482 143.506C192.283 145.049 192.684 146.816 192.684 148.809V149.878C192.684 151.899 192.278 153.677 191.468 155.21C190.667 156.743 189.52 157.925 188.025 158.755C186.541 159.585 184.837 160 182.913 160H176.775ZM180.481 141.66V157.041H182.898C184.842 157.041 186.331 156.436 187.366 155.225C188.411 154.004 188.943 152.256 188.963 149.98V148.794C188.963 146.479 188.46 144.712 187.454 143.491C186.448 142.271 184.988 141.66 183.074 141.66H180.481ZM207.991 155.034H199.729L198.001 160H194.148L202.205 138.672H205.53L213.602 160H209.734L207.991 155.034ZM200.77 152.046H206.951L203.86 143.198L200.77 152.046ZM220.794 148.779L225.701 138.672H229.803L222.654 152.148V160H218.934V152.148L211.771 138.672H215.887L220.794 148.779ZM233.919 156.25C234.583 156.25 235.096 156.44 235.457 156.821C235.818 157.192 235.999 157.661 235.999 158.228C235.999 158.784 235.818 159.248 235.457 159.619C235.096 159.98 234.583 160.161 233.919 160.161C233.284 160.161 232.781 159.98 232.41 159.619C232.039 159.258 231.854 158.794 231.854 158.228C231.854 157.661 232.034 157.192 232.396 156.821C232.757 156.44 233.265 156.25 233.919 156.25ZM233.919 143.813C234.583 143.813 235.096 144.004 235.457 144.385C235.818 144.756 235.999 145.225 235.999 145.791C235.999 146.348 235.818 146.812 235.457 147.183C235.096 147.544 234.583 147.725 233.919 147.725C233.284 147.725 232.781 147.544 232.41 147.183C232.039 146.821 231.854 146.357 231.854 145.791C231.854 145.225 232.034 144.756 232.396 144.385C232.757 144.004 233.265 143.813 233.919 143.813Z" fill="#FFFDFD"/>
<defs>
<filter id="filter0_d" x="75" y="541" width="224" height="55" filterUnits="userSpaceOnUse" color-interpolation-filters="sRGB">
<feFlood flood-opacity="0" result="BackgroundImageFix"/>
<feColorMatrix in="SourceAlpha" type="matrix" values="0 0 0 0 0 0 0 0 0 0 0 0 0 0 0 0 0 0 127 0"/>
<feOffset dy="4"/>
<feGaussianBlur stdDeviation="2"/>
<feColorMatrix type="matrix" values="0 0 0 0 0 0 0 0 0 0 0 0 0 0 0 0 0 0 0.25 0"/>
<feBlend mode="normal" in2="BackgroundImageFix" result="effect1_dropShadow"/>
<feBlend mode="normal" in="SourceGraphic" in2="effect1_dropShadow" result="shape"/>
</filter>
</defs>
</svg>
